<mxfile host="app.diagrams.net" modified="2023-07-27T01:24:29.510Z" agent="Mozilla/5.0 (Windows NT 10.0; Win64; x64) AppleWebKit/537.36 (KHTML, like Gecko) Chrome/114.0.0.0 Safari/537.36" etag="cliVol9hAix93xfpvwan" version="21.6.3" type="github">
  <diagram name="第 1 页" id="TQEZFYRruaVA5lFo6c2C">
    <mxGraphModel dx="1434" dy="788" grid="0" gridSize="10" guides="1" tooltips="1" connect="1" arrows="1" fold="1" page="0" pageScale="1" pageWidth="1169" pageHeight="827" math="0" shadow="0">
      <root>
        <mxCell id="0" />
        <mxCell id="1" parent="0" />
      </root>
    </mxGraphModel>
  </diagram>
</mxfile>
